<svg width="139" height="254" viewBox="0 0 139 254" fill="none" xmlns="http://www.w3.org/2000/svg">
<circle cx="6" cy="8" r="6" fill="#B3B3B3"/>
<circle cx="43" cy="8" r="6" fill="#B3B3B3"/>
<circle cx="80" cy="8" r="6" fill="#B3B3B3"/>
<circle cx="117" cy="8" r="6" fill="#B3B3B3"/>
<circle cx="6" cy="45" r="6" fill="#B3B3B3"/>
<circle cx="43" cy="45" r="6" fill="#B3B3B3"/>
<circle cx="80" cy="45" r="6" fill="#B3B3B3"/>
<circle cx="117" cy="45" r="6" fill="#B3B3B3"/>
<circle cx="6" cy="82" r="6" fill="#B3B3B3"/>
<circle cx="43" cy="82" r="6" fill="#B3B3B3"/>
<circle cx="80" cy="82" r="6" fill="#B3B3B3"/>
<circle cx="117" cy="82" r="6" fill="#B3B3B3"/>
<circle cx="6" cy="119" r="6" fill="#B3B3B3"/>
<circle cx="43" cy="119" r="6" fill="#B3B3B3"/>
<circle cx="80" cy="119" r="6" fill="#B3B3B3"/>
<circle cx="117" cy="119" r="6" fill="#B3B3B3"/>
<circle cx="6" cy="156" r="6" fill="#B3B3B3"/>
<circle cx="43" cy="156" r="6" fill="#B3B3B3"/>
<circle cx="80" cy="156" r="6" fill="#B3B3B3"/>
<circle cx="117" cy="156" r="6" fill="#B3B3B3"/>
<circle cx="6" cy="193" r="6" fill="#B3B3B3"/>
<circle cx="43" cy="193" r="6" fill="#B3B3B3"/>
<circle cx="80" cy="193" r="6" fill="#B3B3B3"/>
<circle cx="117" cy="193" r="6" fill="#B3B3B3"/>
</svg>
